<?xml version="1.0" standalone="no"?>
<!DOCTYPE svg PUBLIC "-//W3C//DTD SVG 20010904//EN"
 "http://www.w3.org/TR/2001/REC-SVG-20010904/DTD/svg10.dtd">
<svg version="1.0" xmlns="http://www.w3.org/2000/svg"
 width="512.000000pt" height="512.000000pt" viewBox="0 0 512.000000 512.000000"
 preserveAspectRatio="xMidYMid meet">
<metadata>
Created by potrace 1.11, written by Peter Selinger 2001-2013
</metadata>
<g transform="translate(0.000000,512.000000) scale(0.100000,-0.100000)"
fill="#000000" stroke="none">
<path d="M2390 5114 c-521 -35 -1025 -232 -1435 -561 -130 -104 -343 -324
-438 -451 -336 -451 -517 -991 -517 -1542 0 -551 181 -1091 517 -1542 95 -127
308 -347 438 -451 367 -294 814 -485 1285 -548 123 -17 517 -17 640 0 471 63
918 254 1285 548 130 104 343 324 438 451 336 451 517 991 517 1542 0 551
-181 1091 -517 1542 -95 127 -308 347 -438 451 -360 289 -799 479 -1252 542
-101 15 -420 26 -523 19z m-657 -975 c34 -11 83 -34 109 -51 59 -37 144 -129
170 -183 10 -22 81 -249 157 -505 293 -991 386 -1300 391 -1300 5 0 167 538
416 1377 91 309 129 425 153 462 48 74 122 138 209 179 74 36 81 37 187 37
106 0 113 -1 188 -37 55 -27 95 -55 133 -94 101 -106 83 -24 316 -1416 179
-1071 208 -1265 205 -1333 -6 -133 -59 -220 -165 -272 -51 -25 -67 -28 -162
-28 -93 0 -112 3 -162 27 -66 31 -116 92 -141 172 -16 49 -70 403 -212 1386
-70 487 -74 514 -81 507 -3 -3 -38 -121 -79 -263 -347 -1217 -469 -1634 -490
-1671 -82 -139 -269 -198 -450 -142 -55 17 -78 31 -120 73 -29 29 -60 66 -69
83 -9 18 -72 229 -141 470 -211 743 -414 1446 -419 1450 -6 6 -12 -29 -36
-202 -104 -742 -243 -1655 -260 -1703 -28 -78 -65 -122 -135 -157 -55 -28 -68
-30 -165 -30 -86 0 -113 4 -151 21 -110 51 -170 144 -176 273 -6 114 404 2570
442 2647 50 101 160 192 280 230 64 20 186 17 258 -7z"/>
</g>
</svg>
